<svg width="20" height="20" viewBox="0 0 20 20" fill="none" xmlns="http://www.w3.org/2000/svg">
<g clip-path="url(#clip0_8631_3543)">
<path d="M18.7958 11.3849L17.2124 5.68828C16.7483 4.01939 15.7397 2.55352 14.3469 1.52367C12.954 0.493823 11.2569 -0.0408992 9.52531 0.00450091C7.79369 0.049901 6.12693 0.672818 4.78998 1.77424C3.45302 2.87565 2.52259 4.39236 2.14659 6.08328L0.920757 11.5958C0.785353 12.2049 0.788484 12.8366 0.929918 13.4444C1.07135 14.0521 1.34748 14.6203 1.73791 15.1071C2.12834 15.5938 2.62311 15.9866 3.18568 16.2566C3.74826 16.5265 4.36428 16.6666 4.98826 16.6666H5.91659C6.10785 17.6085 6.61887 18.4553 7.36304 19.0636C8.10722 19.6718 9.03879 20.0041 9.99992 20.0041C10.9611 20.0041 11.8926 19.6718 12.6368 19.0636C13.381 18.4553 13.892 17.6085 14.0833 16.6666H14.7816C15.4239 16.6667 16.0576 16.5182 16.6331 16.2328C17.2085 15.9474 17.7102 15.5329 18.0989 15.0215C18.4877 14.5101 18.7529 13.9158 18.8739 13.285C18.9949 12.6541 18.9685 12.0039 18.7966 11.3849H18.7958ZM9.99992 18.3333C9.48471 18.3311 8.98273 18.1699 8.56267 17.8715C8.14262 17.5732 7.82499 17.1524 7.65326 16.6666H12.3466C12.1749 17.1524 11.8572 17.5732 11.4372 17.8715C11.0171 18.1699 10.5151 18.3311 9.99992 18.3333ZM16.7716 14.0124C16.5394 14.3205 16.2385 14.5702 15.8929 14.7416C15.5473 14.913 15.1665 15.0015 14.7808 14.9999H4.98826C4.61391 14.9999 4.24436 14.9157 3.90687 14.7538C3.56939 14.5918 3.2726 14.3561 3.03839 14.064C2.80419 13.772 2.63856 13.4311 2.55373 13.0665C2.46889 12.7019 2.46702 12.3229 2.54826 11.9574L3.77326 6.44411C4.06855 5.11595 4.79935 3.92462 5.84947 3.05949C6.89959 2.19436 8.20878 1.70509 9.5689 1.66946C10.929 1.63383 12.262 2.05388 13.356 2.86284C14.45 3.6718 15.2422 4.82323 15.6066 6.13411L17.1899 11.8308C17.2945 12.2019 17.3112 12.5923 17.2386 12.9711C17.166 13.3498 17.0061 13.7063 16.7716 14.0124Z" fill="#23191A"/>
</g>
<defs>
<clipPath id="clip0_8631_3543">
<rect width="20" height="20" fill="white"/>
</clipPath>
</defs>
</svg>
