<svg width="23" height="18" viewBox="0 0 23 18" fill="none" xmlns="http://www.w3.org/2000/svg">
<path d="M0 5.26051V4.58058C0 4.01731 0.482686 3.56069 1.07812 3.56069H17.25V1.52091C17.25 0.612908 18.4134 0.159268 19.0905 0.799718L22.6842 4.19936C23.1053 4.59767 23.1053 5.24343 22.6842 5.6417L19.0905 9.04134C18.416 9.67928 17.25 9.23197 17.25 8.32019V6.2804H1.07812C0.482686 6.2804 0 5.82379 0 5.26051ZM21.9219 11.7198H5.75V9.68004C5.75 8.77429 4.58823 8.31679 3.90951 8.95885L0.315756 12.3585C-0.105252 12.7568 -0.105252 13.4026 0.315756 13.8008L3.90951 17.2005C4.58459 17.839 5.75 17.3903 5.75 16.4793V14.4395H21.9219C22.5173 14.4395 23 13.9829 23 13.4196V12.7397C23 12.1764 22.5173 11.7198 21.9219 11.7198Z" fill="#D4D4D4"/>
</svg>
