<svg width="25" height="25" viewBox="0 0 25 25" fill="none" xmlns="http://www.w3.org/2000/svg">
<g clip-path="url(#clip0_8632_3721)">
<path d="M14.1971 5.55554C10.2922 5.55554 6.882 7.93271 4.98399 9.96657L1.19363 7.09981C0.667155 6.70138 -0.118869 7.12585 0.0156793 7.7361L1.06516 12.5L0.0152453 17.2643C-0.119303 17.8746 0.666721 18.2986 1.1932 17.9006L4.98356 15.0338C6.88156 17.0673 10.2922 19.4444 14.1971 19.4444C20.1632 19.4444 25.0001 13.8889 25.0001 12.5C25.0001 11.1111 20.1632 5.55554 14.1971 5.55554ZM17.9918 13.5417C17.4167 13.5417 16.9501 13.0751 16.9501 12.5C16.9501 11.9245 17.4167 11.4583 17.9918 11.4583C18.5673 11.4583 19.0335 11.9245 19.0335 12.5C19.0335 13.0751 18.5669 13.5417 17.9918 13.5417Z" fill="#DDDDDD"/>
</g>
<defs>
<clipPath id="clip0_8632_3721">
<rect width="25" height="25" fill="white"/>
</clipPath>
</defs>
</svg>
