<svg width="16" height="16" viewBox="0 0 16 16" fill="none" xmlns="http://www.w3.org/2000/svg">
<g clip-path="url(#clip0_8632_3641)">
<path d="M4.66656 16C4.57883 16.0005 4.49185 15.9837 4.41063 15.9505C4.3294 15.9173 4.25552 15.8684 4.19323 15.8066C4.13075 15.7447 4.08115 15.6709 4.0473 15.5897C4.01346 15.5084 3.99603 15.4213 3.99603 15.3333C3.99603 15.2453 4.01346 15.1581 4.0473 15.0769C4.08115 14.9957 4.13075 14.9219 4.19323 14.86L9.6399 9.4133C10.0144 9.0383 10.2248 8.52997 10.2248 7.99997C10.2248 7.46997 10.0144 6.96164 9.6399 6.58664L4.19323 1.13998C4.0677 1.01444 3.99717 0.844181 3.99717 0.666647C3.99717 0.489113 4.0677 0.31885 4.19323 0.193314C4.31877 0.0677786 4.48903 -0.00274658 4.66656 -0.00274658C4.8441 -0.00274658 5.01436 0.0677786 5.1399 0.193314L10.5866 5.63997C10.897 5.94961 11.1433 6.31745 11.3113 6.72241C11.4794 7.12738 11.5659 7.56152 11.5659 7.99997C11.5659 8.43842 11.4794 8.87256 11.3113 9.27753C11.1433 9.68249 10.897 10.0503 10.5866 10.36L5.1399 15.8066C5.07761 15.8684 5.00373 15.9173 4.9225 15.9505C4.84128 15.9837 4.7543 16.0005 4.66656 16Z" fill="#D4D4D4"/>
</g>
<defs>
<clipPath id="clip0_8632_3641">
<rect width="16" height="16" fill="white"/>
</clipPath>
</defs>
</svg>
