<svg width="12" height="12" viewBox="0 0 12 12" fill="none" xmlns="http://www.w3.org/2000/svg">
<g clip-path="url(#clip0_8631_3737)">
<path d="M8.50009 -1.61685e-05C8.56589 -0.00039669 8.63112 0.0122156 8.69204 0.037098C8.75296 0.0619803 8.80837 0.0986433 8.85509 0.144984C8.90195 0.191465 8.93915 0.246765 8.96454 0.307694C8.98992 0.368625 9.00299 0.433977 9.00299 0.499983C9.00299 0.565989 8.98992 0.631342 8.96454 0.692271C8.93915 0.753201 8.90195 0.8085 8.85509 0.854982L4.77009 4.93998C4.48919 5.22123 4.33141 5.60248 4.33141 5.99998C4.33141 6.39748 4.48919 6.77872 4.77009 7.05998L8.85509 11.145C8.94924 11.2391 9.00214 11.3668 9.00214 11.5C9.00214 11.6331 8.94924 11.7608 8.85509 11.855C8.76094 11.9491 8.63324 12.002 8.50009 12.002C8.36694 12.002 8.23924 11.9491 8.14509 11.855L4.06009 7.76997C3.82727 7.53775 3.64256 7.26187 3.51653 6.95814C3.3905 6.65442 3.32562 6.32881 3.32562 5.99998C3.32562 5.67114 3.3905 5.34553 3.51653 5.04181C3.64256 4.73808 3.82727 4.46221 4.06009 4.22998L8.14509 0.144984C8.19181 0.0986434 8.24722 0.0619803 8.30814 0.037098C8.36906 0.0122157 8.43429 -0.000396679 8.50009 -1.61685e-05Z" fill="#23191A"/>
</g>
<defs>
<clipPath id="clip0_8631_3737">
<rect width="12" height="12" fill="white" transform="translate(12 12) rotate(180)"/>
</clipPath>
</defs>
</svg>
