<svg width="25" height="24" viewBox="0 0 25 24" fill="none" xmlns="http://www.w3.org/2000/svg">
<path d="M22.9219 13.967L24.9737 4.93922C25.1218 4.2874 24.6263 3.66669 23.9579 3.66669H6.91007L6.51224 1.72182C6.41311 1.23705 5.98654 0.888916 5.49171 0.888916H1.04167C0.466363 0.888916 0 1.35528 0 1.93058V2.62503C0 3.20033 0.466363 3.66669 1.04167 3.66669H4.07478L7.12374 18.5727C6.39431 18.9922 5.90278 19.7788 5.90278 20.6806C5.90278 22.0229 6.99097 23.1111 8.33333 23.1111C9.67569 23.1111 10.7639 22.0229 10.7639 20.6806C10.7639 20.0003 10.4841 19.3857 10.0337 18.9445H19.1329C18.6826 19.3857 18.4028 20.0003 18.4028 20.6806C18.4028 22.0229 19.491 23.1111 20.8333 23.1111C22.1757 23.1111 23.2639 22.0229 23.2639 20.6806C23.2639 19.7183 22.7045 18.8867 21.8933 18.4929L22.1327 17.4392C22.2809 16.7874 21.7854 16.1667 21.117 16.1667H9.46688L9.18281 14.7778H21.9061C22.3925 14.7778 22.8141 14.4413 22.9219 13.967Z" fill="#DDDDDD"/>
<path d="M22.9219 13.967L24.9737 4.93922C25.1218 4.2874 24.6263 3.66669 23.9579 3.66669H6.91007L6.51224 1.72182C6.41311 1.23705 5.98654 0.888916 5.49171 0.888916H1.04167C0.466363 0.888916 0 1.35528 0 1.93058V2.62503C0 3.20033 0.466363 3.66669 1.04167 3.66669H4.07478L7.12374 18.5727C6.39431 18.9922 5.90278 19.7788 5.90278 20.6806C5.90278 22.0229 6.99097 23.1111 8.33333 23.1111C9.67569 23.1111 10.7639 22.0229 10.7639 20.6806C10.7639 20.0003 10.4841 19.3857 10.0337 18.9445H19.1329C18.6826 19.3857 18.4028 20.0003 18.4028 20.6806C18.4028 22.0229 19.491 23.1111 20.8333 23.1111C22.1757 23.1111 23.2639 22.0229 23.2639 20.6806C23.2639 19.7183 22.7045 18.8867 21.8933 18.4929L22.1327 17.4392C22.2809 16.7874 21.7854 16.1667 21.117 16.1667H9.46688L9.18281 14.7778H21.9061C22.3925 14.7778 22.8141 14.4413 22.9219 13.967Z" stroke="#DDDDDD"/>
</svg>
