<svg width="20" height="20" viewBox="0 0 20 20" fill="none" xmlns="http://www.w3.org/2000/svg">
<g clip-path="url(#clip0_8631_3539)">
<path d="M6.04042e-05 10C6.04042e-05 9.77899 0.0878578 9.56702 0.244138 9.41074C0.400418 9.25446 0.61238 9.16667 0.833394 9.16667H4.23256C4.29844 8.70917 4.41989 8.26141 4.59423 7.83333L1.65173 6.12417C1.5535 6.0713 1.46688 5.99926 1.39701 5.9123C1.32714 5.82534 1.27544 5.72524 1.24498 5.61793C1.21451 5.51062 1.2059 5.39829 1.21966 5.28759C1.23341 5.17689 1.26925 5.07008 1.32505 4.97349C1.38085 4.8769 1.45548 4.79249 1.5445 4.72528C1.63353 4.65806 1.73514 4.6094 1.84332 4.58219C1.9515 4.55498 2.06405 4.54976 2.17428 4.56684C2.28452 4.58393 2.3902 4.62298 2.48506 4.68167L5.43089 6.38833C5.71299 6.03457 6.03482 5.71441 6.39006 5.43417L4.68173 2.48667C4.57905 2.29588 4.55473 2.0726 4.6139 1.86418C4.67307 1.65575 4.81109 1.47857 4.99869 1.37019C5.1863 1.26181 5.40874 1.23075 5.61885 1.28361C5.82897 1.33647 6.01024 1.46908 6.12423 1.65333L7.83339 4.59417C8.26172 4.42075 8.7094 4.2996 9.16673 4.23333V0.833333C9.16673 0.61232 9.25452 0.400358 9.4108 0.244078C9.56709 0.0877974 9.77905 0 10.0001 0C10.2211 0 10.433 0.0877974 10.5893 0.244078C10.7456 0.400358 10.8334 0.61232 10.8334 0.833333V4.23333C11.2907 4.2996 11.7384 4.42075 12.1667 4.59417L13.8726 1.65083C13.9865 1.46658 14.1678 1.33397 14.3779 1.28111C14.588 1.22825 14.8105 1.25931 14.9981 1.36769C15.1857 1.47607 15.3237 1.65325 15.3829 1.86168C15.4421 2.0701 15.4177 2.29338 15.3151 2.48417L13.6067 5.43083C13.9618 5.71121 14.2839 6.03104 14.5667 6.38417L17.5092 4.67833C17.7 4.57566 17.9233 4.55133 18.1317 4.6105C18.3401 4.66967 18.5173 4.80769 18.6257 4.9953C18.7341 5.18291 18.7651 5.40535 18.7123 5.61546C18.6594 5.82558 18.5268 6.00684 18.3426 6.12083L15.4084 7.82833C15.5846 8.26022 15.708 8.71183 15.7759 9.17333L19.1667 9.16667C19.3877 9.16667 19.5997 9.25446 19.756 9.41074C19.9123 9.56702 20.0001 9.77899 20.0001 10C20.0001 10.221 19.9123 10.433 19.756 10.5893C19.5997 10.7455 19.3877 10.8333 19.1667 10.8333H15.7684C15.3691 10.8319 14.9836 10.6872 14.682 10.4255C14.3804 10.1639 14.1828 9.80261 14.1251 9.4075C13.9726 8.42288 13.4729 7.52528 12.7164 6.87689C11.9599 6.22851 10.9964 5.87212 10.0001 5.87212C9.00371 5.87212 8.04021 6.22851 7.28369 6.87689C6.52718 7.52528 6.02753 8.42288 5.87506 9.4075C5.81739 9.80246 5.61988 10.1636 5.31846 10.4253C5.01703 10.6869 4.63171 10.8317 4.23256 10.8333H0.833394C0.61238 10.8333 0.400418 10.7455 0.244138 10.5893C0.0878578 10.433 6.04042e-05 10.221 6.04042e-05 10ZM19.7867 13.8042C19.6391 13.6398 19.4322 13.5407 19.2115 13.5288C18.9908 13.517 18.7745 13.5932 18.6101 13.7408C18.3905 13.9164 18.1337 14.0395 17.8593 14.1006C17.5849 14.1618 17.3001 14.1595 17.0268 14.0938C16.7534 14.0281 16.4987 13.9008 16.282 13.7216C16.0654 13.5425 15.8926 13.3162 15.7767 13.06C15.7378 12.9423 15.6725 12.835 15.5859 12.7464C15.4992 12.6577 15.3935 12.59 15.2767 12.5483C15.0685 12.4749 14.8397 12.4872 14.6405 12.5823C14.4413 12.6775 14.288 12.8478 14.2142 13.0558C14.0597 13.381 13.8162 13.6558 13.512 13.8484C13.2077 14.0409 12.8552 14.1433 12.4951 14.1438C12.1351 14.1442 11.7823 14.0426 11.4776 13.8508C11.1728 13.659 10.9287 13.3848 10.7734 13.06C10.7343 12.9423 10.669 12.8349 10.5824 12.7462C10.4958 12.6574 10.3901 12.5894 10.2734 12.5475C10.1702 12.5111 10.0608 12.4953 9.95154 12.5011C9.84225 12.5069 9.73518 12.5342 9.63644 12.5814C9.5377 12.6286 9.44922 12.6948 9.37606 12.7762C9.3029 12.8576 9.2465 12.9526 9.21006 13.0558C9.05545 13.3808 8.81198 13.6554 8.50782 13.8478C8.20367 14.0401 7.85126 14.1425 7.49137 14.1429C7.13149 14.1433 6.77883 14.0419 6.47421 13.8502C6.16959 13.6586 5.92546 13.3846 5.77006 13.06C5.73101 12.9423 5.66571 12.8349 5.57909 12.7462C5.49246 12.6574 5.38679 12.5894 5.27006 12.5475C5.16686 12.5111 5.0575 12.4953 4.94821 12.5011C4.83892 12.5069 4.73185 12.5342 4.6331 12.5814C4.53436 12.6286 4.44589 12.6948 4.37273 12.7762C4.29957 12.8576 4.24316 12.9526 4.20673 13.0558C4.09278 13.3125 3.92139 13.5395 3.7058 13.7194C3.49021 13.8994 3.23616 14.0274 2.96327 14.0936C2.69037 14.1597 2.40592 14.1624 2.13185 14.1012C1.85779 14.0401 1.60143 13.9168 1.38256 13.7408C1.21561 13.6129 1.00645 13.5529 0.797065 13.5727C0.587677 13.5926 0.39354 13.6909 0.253603 13.8479C0.113667 14.0049 0.0382805 14.209 0.0425693 14.4193C0.0468581 14.6296 0.130504 14.8305 0.276727 14.9817C0.941614 15.5525 1.79747 15.8514 2.67317 15.8184C3.54888 15.7855 4.37989 15.4233 5.00006 14.8042C5.67045 15.4532 6.56697 15.8161 7.50006 15.8161C8.43315 15.8161 9.32967 15.4532 10.0001 14.8042C10.6703 15.4534 11.5669 15.8164 12.5001 15.8164C13.4332 15.8164 14.3298 15.4534 15.0001 14.8042C15.6201 15.4234 16.4511 15.7858 17.3268 15.8189C18.2025 15.8519 19.0584 15.5532 19.7234 14.9825C19.805 14.9094 19.8715 14.8208 19.9189 14.722C19.9662 14.6232 19.9937 14.5159 19.9995 14.4065C20.0054 14.297 19.9897 14.1875 19.9531 14.0841C19.9166 13.9808 19.8601 13.8856 19.7867 13.8042ZM19.7867 17.9708C19.6391 17.8064 19.4322 17.7074 19.2115 17.6955C18.9908 17.6836 18.7745 17.7599 18.6101 17.9075C18.3905 18.0831 18.1337 18.2061 17.8593 18.2673C17.5849 18.3285 17.3001 18.3261 17.0268 18.2604C16.7534 18.1948 16.4987 18.0675 16.282 17.8883C16.0654 17.7091 15.8926 17.4828 15.7767 17.2267C15.7378 17.109 15.6725 17.0017 15.5859 16.913C15.4992 16.8244 15.3935 16.7566 15.2767 16.715C15.0685 16.6416 14.8397 16.6538 14.6405 16.749C14.4413 16.8441 14.288 17.0144 14.2142 17.2225C14.0593 17.5475 13.8155 17.822 13.511 18.0142C13.2065 18.2064 12.8539 18.3084 12.4938 18.3084C12.1338 18.3084 11.7811 18.2064 11.4766 18.0142C11.1721 17.822 10.9283 17.5475 10.7734 17.2225C10.7343 17.1048 10.669 16.9974 10.5824 16.9087C10.4958 16.8199 10.3901 16.7519 10.2734 16.71C10.1702 16.6735 10.0608 16.6578 9.95154 16.6636C9.84225 16.6694 9.73518 16.6967 9.63644 16.7439C9.5377 16.7911 9.44922 16.8573 9.37606 16.9387C9.3029 17.0201 9.2465 17.1151 9.21006 17.2183C9.05505 17.5431 8.81125 17.8174 8.50687 18.0094C8.20248 18.2014 7.84995 18.3033 7.49006 18.3033C7.13017 18.3033 6.77764 18.2014 6.47325 18.0094C6.16887 17.8174 5.92507 17.5431 5.77006 17.2183C5.73101 17.1006 5.66571 16.9933 5.57909 16.9045C5.49246 16.8157 5.38679 16.7478 5.27006 16.7058C5.16686 16.6694 5.0575 16.6536 4.94821 16.6594C4.83892 16.6653 4.73185 16.6926 4.6331 16.7398C4.53436 16.787 4.44589 16.8531 4.37273 16.9345C4.29957 17.016 4.24316 17.111 4.20673 17.2142C4.09278 17.4708 3.92139 17.6979 3.7058 17.8778C3.49021 18.0577 3.23616 18.1857 2.96327 18.2519C2.69037 18.3181 2.40592 18.3207 2.13185 18.2595C1.85779 18.1984 1.60143 18.0751 1.38256 17.8992C1.21691 17.7525 0.999792 17.6777 0.778968 17.6911C0.558144 17.7046 0.351703 17.8052 0.20506 17.9708C0.0584178 18.1365 -0.0164146 18.3536 -0.0029745 18.5744C0.0104656 18.7952 0.111077 19.0017 0.276727 19.1483C0.941614 19.7192 1.79747 20.018 2.67317 19.9851C3.54888 19.9522 4.37989 19.59 5.00006 18.9708C5.67045 19.6199 6.56697 19.9827 7.50006 19.9827C8.43315 19.9827 9.32967 19.6199 10.0001 18.9708C10.6703 19.6201 11.5669 19.9831 12.5001 19.9831C13.4332 19.9831 14.3298 19.6201 15.0001 18.9708C15.6201 19.5901 16.4511 19.9525 17.3268 19.9855C18.2025 20.0186 19.0584 19.7199 19.7234 19.1492C19.805 19.076 19.8715 18.9875 19.9189 18.8887C19.9662 18.7898 19.9937 18.6826 19.9995 18.5731C20.0054 18.4637 19.9897 18.3541 19.9531 18.2508C19.9166 18.1474 19.8601 18.0523 19.7867 17.9708Z" fill="#23191A"/>
</g>
<defs>
<clipPath id="clip0_8631_3539">
<rect width="20" height="20" fill="white"/>
</clipPath>
</defs>
</svg>
