<svg xmlns="http://www.w3.org/2000/svg" enable-background="new 0 0 500 421" viewBox="0 0 500 421"><path fill="#cce9ff" d="M217.071,40.009c-6.118,3.091-11.851,6.52-17.049,10.173c-18.172,12.763-32.79,31.34-50.647,44.141
			c-16.862,12.087-37.454,15.026-56.749,17.044c-33.633,3.522-103.78,37.295-91.115,99.893
			c4.608,22.781,20.858,38.253,29.178,58.881c8.85,21.944,7.921,49.314,22.012,68.338c6.199,8.365,14.756,13.89,23.541,18.075
			c58.465,27.841,124.12,26.548,186.115,23.478c48.93-2.422,127.519,10.38,170.498-20.881c21.338-15.522,10.242-57.952,25.007-80.74
			c12.408-19.149,29.295-31.724,37.59-55.695c14.115-40.789-6.005-93.868-41.237-108.347c-22.015-9.047-45.338-13.193-67.098-23.129
			c-22.484-10.27-31.148-25.653-48.293-43.857C307.827,14.475,255.071,20.789,217.071,40.009z"/><path fill="#fcd2b1" d="M261.793 265.637c0 0 11.987-30.855 8.676-61.322C270.469 204.316 245.874 237.116 261.793 265.637zM116.752 190.458c0 0-8.863 57.286-7.024 58.36C109.728 248.818 139.409 202.925 116.752 190.458z"/><path fill="#eba87f" d="M117.33,197.465l0.805-0.485c-0.128,0.712-2.206,3.101-4.104,4.123
					c-0.806,0.441-1.735,0.723-2.734,0.681c-0.41-0.014-0.828-0.079-1.259-0.214c-0.348-0.353-0.772-1.18-1.171-2.172
					c-0.006-0.009-0.006-0.023-0.013-0.03c-0.094-0.245-0.187-0.496-0.282-0.755c-0.253-0.684-0.476-1.411-0.65-2.08
					c-0.022-0.072-0.034-0.144-0.058-0.208c-0.246-0.993-0.376-1.85-0.29-2.296c0.022-0.101,0.072-0.2,0.158-0.294
					c0.137-0.167,0.367-0.318,0.655-0.462c0.424-0.201,0.986-0.368,1.582-0.512l0.008-0.001c0.416-0.101,0.848-0.188,1.273-0.253
					c0.03-0.008,0.066-0.016,0.101-0.022c0.36-0.058,0.705-0.108,1.022-0.154c0.173-0.02,0.331-0.035,0.482-0.057
					c0.533-0.059,0.914-0.088,0.987-0.088C114.158,192.194,117.52,196.335,117.33,197.465z"/><path fill="#ffbe55" d="M114.749,174.782c-0.016-0.08-0.016-0.111-0.016-0.111c-0.463,1.166-5.831,6.613-6.166,6.948
						c-0.016,0.015-0.016,0.015-0.016,0.015l-3.227-7.555l0.767,8.178v0.016c0,0,0,0-0.016,0c-0.448-0.111-8.147-1.98-8.785-2.172
						c-0.017,0-0.017,0-0.017,0c-0.766-1.102-1.309-2.396-1.549-3.801c-0.256-1.486-0.143-2.939,0.24-4.297
						c0.991-3.402,3.848-6.133,7.57-6.773c3.882-0.671,7.62,1.102,9.647,4.201c0.703,1.054,1.198,2.284,1.423,3.609
						C114.7,173.633,114.749,174.207,114.749,174.782z"/><path fill="#ffc393" d="M129.072,209.257l-2.527-2.254l-2.847-2.524l-6.777-6.029c0,0-3.377-0.538-4.071-4.723
					c-0.044-0.284-0.08-0.569-0.106-0.878c-0.048,0.091-0.108,0.183-0.173,0.263c-0.278,0.382-0.655,0.645-1.068,0.804l-0.02,0.003
					c-0.014,0.001-0.014,0.001-0.026,0.003c-0.009,0.001-0.009,0.001-0.025,0.003c-0.011,0.001-0.011,0.001-0.02,0.001
					c-0.014,0.002-0.014,0.002-0.025,0.016c-0.354,0.151-0.764,0.224-1.149,0.224c-0.791,0.027-1.585-0.167-2.1-0.441
					c-0.285-0.157-0.501-0.347-0.572-0.542c-0.072-0.196,0.065-0.454,0.357-0.718c0.724-0.679,2.394-1.473,4.146-1.724
					c1.025-0.172,2.089-0.134,2.996,0.211c3.065,1.177,2.856,3.283,2.856,3.283l6.584,5.534l0.176,0.147l0.12,0.093l0.002,0.013
					l3.391,2.844c0,0,0,0,0.001,0.013c0.013,0.094,0.117,0.755,0.276,1.854c0.098,0.71,0.231,1.596,0.362,2.651
					C128.915,207.963,128.991,208.592,129.072,209.257z"/><path fill="#fcd2b1" d="M219.655,151.133c-0.331-0.668-0.771-1.324-1.306-1.936c-0.162,0.143-0.334,0.288-0.502,0.432
					c-0.103,0.101-0.215,0.188-0.32,0.28c-0.014,0.009-0.027,0.019-0.034,0.027c-0.031,0.033-0.064,0.059-0.105,0.086
					c-0.025,0.025-0.05,0.051-0.079,0.067c-0.045,0.035-0.092,0.077-0.129,0.111c-0.111,0.095-0.229,0.189-0.342,0.282
					c-0.104,0.087-0.209,0.173-0.315,0.259c-0.041,0.027-0.079,0.061-0.118,0.094l-0.396,0.313
					c-0.012,0.008-0.033,0.024-0.045,0.034l-0.006,0.008c-0.147,0.113-0.285,0.217-0.424,0.331
					c-0.098,0.069-0.198,0.147-0.292,0.217c-0.112,0.086-0.223,0.165-0.329,0.252c-0.107,0.079-0.214,0.158-0.326,0.236
					c-0.223,0.168-0.451,0.334-0.669,0.492l-0.299,0.212c-0.114,0.081-0.221,0.153-0.328,0.222c-0.165,0.125-0.34,0.24-0.508,0.349
					c-0.164,0.122-0.332,0.23-0.506,0.339c-0.154,0.107-0.315,0.215-0.471,0.313c-0.033,0.02-0.067,0.038-0.1,0.065
					c-0.317,0.199-0.638,0.4-0.955,0.593c-0.335,0.211-0.672,0.419-1.009,0.614c-0.15,0.084-0.304,0.176-0.447,0.26
					c-0.047,0.02-0.089,0.047-0.128,0.066c-0.073,0.046-0.148,0.093-0.223,0.13c-0.033,0.019-0.067,0.038-0.095,0.057
					c-0.128,0.067-0.257,0.141-0.387,0.216c-0.13,0.067-0.257,0.141-0.387,0.209c-0.256,0.141-0.515,0.283-0.774,0.417
					c-0.197,0.106-0.395,0.203-0.591,0.308c-0.095,0.047-0.192,0.089-0.281,0.137c-0.162,0.086-0.335,0.165-0.497,0.244
					c-0.137,0.069-0.267,0.135-0.402,0.204c-0.139,0.061-0.273,0.129-0.412,0.197l-0.014,0.001c-0.17,0.081-0.348,0.168-0.526,0.25
					c-0.172,0.079-0.349,0.16-0.529,0.24c-0.356,0.161-0.707,0.315-1.065,0.469l-0.104,0.043c-0.114,0.051-0.232,0.102-0.35,0.154
					c-0.117,0.05-0.232,0.094-0.351,0.145c-0.44,0.186-0.883,0.367-1.324,0.538c-0.139,0.054-0.285,0.11-0.42,0.17
					c0,0,0,0-0.009,0.001c-0.324,0.122-0.649,0.249-0.975,0.37c-0.165,0.065-0.337,0.13-0.505,0.187
					c-0.133,0.047-0.271,0.1-0.403,0.146c0,0,0,0-0.008,0.001c-2.794,1.015-5.547,1.859-8.214,2.669
					c-0.091,0.033-0.181,0.06-0.265,0.084c-0.008,0.002-0.008,0.002-0.008,0.002c-2.569,0.784-5.055,1.534-7.445,2.383
					c-0.505,0.18-1.012,0.367-1.51,0.562c-0.299,0.111-0.589,0.228-0.872,0.335c-0.184,0.082-0.377,0.165-0.577,0.248
					c-0.03,0.011-0.056,0.022-0.075,0.038c-0.062,0.023-0.125,0.052-0.186,0.083c-0.246,0.111-0.495,0.229-0.733,0.339
					c-0.131,0.067-0.253,0.127-0.376,0.186c-0.027,0.012-0.047,0.02-0.069,0.03l-0.006,0.002c-0.098,0.048-0.198,0.104-0.287,0.145
					c-0.2,0.083-0.398,0.174-0.583,0.263c-0.034,0.011-0.075,0.03-0.109,0.05c-0.109,0.049-0.218,0.107-0.329,0.158
					c-0.08,0.046-0.17,0.086-0.251,0.133c-0.067,0.037-0.142,0.082-0.217,0.122c-0.062,0.029-0.122,0.066-0.182,0.103
					c-0.102,0.064-0.201,0.119-0.296,0.182c-0.087,0.047-0.169,0.101-0.25,0.154c-0.079,0.053-0.158,0.108-0.232,0.161
					c-0.041,0.027-0.081,0.054-0.112,0.079c-0.075,0.046-0.14,0.097-0.208,0.149c-0.086,0.063-0.171,0.125-0.253,0.186
					c-0.084,0.069-0.156,0.129-0.242,0.197c-0.028,0.017-0.053,0.035-0.072,0.061c-0.014,0.009-0.027,0.024-0.039,0.033
					c-0.061,0.044-0.114,0.087-0.164,0.137c-0.022,0.01-0.041,0.027-0.053,0.043c-0.092,0.07-0.178,0.147-0.254,0.221
					c-0.02,0.016-0.033,0.026-0.053,0.042c-0.084,0.084-0.176,0.161-0.259,0.243c-0.287,0.262-0.563,0.536-0.842,0.804
					c-0.097,0.099-0.193,0.191-0.288,0.291c-0.15,0.142-0.29,0.29-0.44,0.433c-0.089,0.084-0.172,0.173-0.264,0.258
					c-0.09,0.084-0.181,0.167-0.273,0.259c-0.148,0.136-0.306,0.271-0.462,0.415c-0.164,0.137-0.328,0.282-0.499,0.419
					c-0.162,0.137-0.328,0.266-0.507,0.398c-0.086,0.069-0.179,0.138-0.271,0.201c-0.287,0.204-0.593,0.417-0.922,0.625
					c-0.014,0.009-0.02,0.017-0.034,0.026c-1.828,1.532-3.561,3.078-4.005,4.042c0.106,0.147,0.226,0.299,0.362,0.448
					c0.618,0.705,1.544,1.473,2.931,2.058c2.485,1.055,6.415,1.55,12.62,0.203c0.975-0.211,2.017-0.467,3.117-0.774
					c0.44-0.128,0.895-0.258,1.357-0.398c0.131-0.044,0.262-0.092,0.404-0.13c0.145-0.048,0.287-0.088,0.434-0.136
					c0.22-0.072,0.438-0.143,0.66-0.221c0.176-0.051,0.357-0.111,0.529-0.176c0.125-0.044,0.251-0.082,0.382-0.128
					c0.181-0.067,0.37-0.127,0.557-0.193c0.201-0.069,0.401-0.145,0.604-0.216c0.062-0.022,0.118-0.044,0.181-0.065
					c2.772-1.014,5.852-2.305,9.267-3.921c4.279-1.777,7.919-3.677,10.928-5.626c0.36-0.235,0.717-0.469,1.065-0.701
					c0.053-0.035,0.106-0.072,0.159-0.108c0-0.006,0.014-0.009,0.012-0.016c0.175-0.116,0.335-0.23,0.501-0.345
					c0.012-0.01,0.022-0.01,0.034-0.02c0.159-0.113,0.312-0.227,0.463-0.341c0.087-0.062,0.167-0.115,0.248-0.176
					c0.079-0.061,0.165-0.124,0.243-0.184c0.159-0.122,0.318-0.243,0.469-0.364c0.186-0.14,0.357-0.277,0.533-0.416
					c0.351-0.284,0.691-0.567,1.017-0.855c4.559-3.96,6.684-7.981,6.472-11.536C220.429,153.161,220.151,152.115,219.655,151.133z"/><path fill="#0e538c" d="M177.746 380.34c0 0-1.8 3.365-2.978 4.698-1.178 1.337-11.733 5.555-11.758 9.518-.025 4.302 13.648 1.273 16.634 1.118 2.982-.158 3.209-2.454 4.467-4.887 1.251-2.433 2.521-2.023 2.756-3.985.234-1.964-1.218-6.462-1.218-6.462H177.746zM223.174 379.947c0 0 3.676 4.107 7.408 4.968 3.736.859 9.317 2.157 9.348 4.514.027 2.358-13.715 3.708-17.989 1.332-6.375-3.545-7.022-2.477-7.73-4.246-.707-1.773.848-6.511.805-7.074C214.957 378.745 223.174 379.947 223.174 379.947z"/><path fill="#0e538c" d="M222.761 377.985c0 0 .487 1.925.413 1.962-.075.044-8.412 1.036-8.159-.505.203-1.253.496-2.614.496-2.614L222.761 377.985zM185.547 379.046c0 0 .351 1.833.281 1.878-.067.044-8.454 1.543-8.407.017.034-1.209.772-2.619.772-2.619L185.547 379.046z"/><path fill="#f1b99e" d="M197.093 192.594c-2.563.346-6.824-.007-9.738-2.093 0 0-.008-.396-.066-1.188-.13-1.784-.516-5.586-1.633-11.443-.426-2.26 13.134 5.959 13.134 5.959s-.042.792-.063 1.863c-.014.561-.031 1.202-.023 1.849 0 .224.009.448.009.677.014.597.04 1.167.084 1.655.022.159.064.368.122.584.109.431.267.884.334 1.044C199.452 191.968 198.546 192.392 197.093 192.594zM277.867 205.245c0 0 8.935 1.042 9.437 1.613.502.573.382 1.059-.457.995-.844-.063-8.68-.756-8.68-.756s10.242 3.022 10.761 3.396c.306.218.133 1.165-.328 1.173-.454.009-10.816-2.396-10.816-2.396s9.552 2.841 9.888 3.288c.292.392-.087 1.236-.814 1.075-.727-.161-9.78-2.287-9.78-2.287s6.795 2.515 6.841 3.076c.028.34-.086 1.164-1.816.459-1.727-.704-6.01-1.928-6.01-1.928L277.867 205.245z"/><path fill="#f1b99e" d="M267.306 205.665c0 0 2.973.155 3.882-1.349.774-1.28 2.664-2.44 3.245-2.797.775-.48 2.67-2.8 3.219-1.869.549.933-2.951 3.964-3.567 4.736-.618.772 3.67.492 4.452 1.053.785.563.356 7.658-2.585 7.512-2.942-.146-5.853-2.248-6.383-2.169-.527.079-2.148-.021-2.148-.021L267.306 205.665zM205.934 163.03c0 0 2.981 5.526 1.504 6.386-1.22.71 1.432 6.129 1.778 7.016.348.888-2.212 1.529-2.756 2.101-.54.567-2.152 7.585-4.258 7.797-2.104.212-11.596-3.088-14.179-5.777-2.585-2.688-4.706-14.824-2.979-19.941C186.767 155.491 200.677 153.38 205.934 163.03z"/><path fill="#0b4870" d="M207.055,165.442c0,0,3.21-9.161-2.054-10.94c-6.706-2.267-16.667,2.676-17.818,2.972
						c-1.146,0.295-7.66,0.743-4.372,12.183c2.823,9.822,3.219,10.236,3.219,10.236s2.109-5.689,3.302-6.557
						c1.867-1.354,5.959-1.029,5.959-1.029s-1.951-5.175,1.096-5.908C199.431,165.667,199.804,170.053,207.055,165.442z"/><path fill="#eea886" d="M192.045,169.344c-0.268-0.711-1.135-3.762-3.756-1.97c-2.617,1.791,1.632,7.543,2.089,7.616
						C190.835,175.065,194.305,175.316,192.045,169.344z"/><path fill="#a77860" d="M198.706,187.54c0,0.226,0.003,0.451,0.008,0.676c-7.76-2.605-9.26-6.525-9.26-6.525
					c2.416,1.711,9.271,3.997,9.271,3.997C198.708,186.255,198.698,186.896,198.706,187.54z"/><path fill="#0e538c" d="M113.987,241.145c0.633,2.123,0.44,5.355,0.131,8.816c-3.706,0.396-4.391-1.143-4.391-1.143
					c0.878-1.173,2.101-5.275,3.396-10.666C113.406,239.166,113.702,240.167,113.987,241.145z"/><path fill="#ffbe55" d="M265.391,215.531c-5.784,17.785-2.733,40.312-3.669,44.052c-1.153,4.608,0.072,6.054,0.072,6.054
					c-5.369,1.21-8.997-0.633-12.56-3.7c-0.315-0.265-0.619-0.538-0.92-0.828c-4.686-4.447-7.96-10.874-10.444-14.645
					c-1.381-2.093-3.936-4.598-6.801-7.06c-0.661-0.569-1.344-1.137-2.037-1.699c-5.965-4.851-12.421-9.112-12.421-9.112
					l1.006,11.796c0,0,5.083,33.862,8.308,75.942c0.855,20.231,1.958,38.468,2.452,49.327c0.009,0.037,0.009,0.073,0.009,0.109
					c0.064,3.419,0.1,6.829,0.108,10.22c-0.023,0.048-0.05,0.095-0.094,0.143c0,1.32-0.008,2.592-0.023,2.592
					c-4.035-1.131-9.916-0.412-10.089-0.403c-0.015,0.005-0.03,0.02-0.044,0.034c-1.332,0.87-17.417,1.533-22.131,1.621
					c-4.166,0.072-12.148-0.995-14.703-1.318c-0.368-0.05-0.627-0.079-0.742-0.094c-0.574-0.058-3.9,0.086-6.974,0.151h-0.201
					c-0.006,0-0.006,0-0.014,0c-1.778,0.028-3.447,0.028-4.427-0.058c-2.677-0.245-3.692-6.807-3.692-6.807
					c-0.46,1.365-2.617,5.447-3.201,6.542c-0.095,0.172-0.143,0.265-0.143,0.265c-3.558-0.122-6.135-0.404-6.781-0.944
					c-0.597-0.512-0.029-6.355,1.157-14.84v-0.008c0.028-5.29,3.209-44.088,6.01-77.389c1.691-20.143,3.247-38.28,3.879-45.78
					l-2.628-12.732c0,0-1.784,1.152-4.274,2.757c-0.783,0.504-1.641,1.05-2.524,1.627c-1.781,1.151-3.702,2.396-5.494,3.563
					c-0.986,0.64-2.483,1.447-4.333,2.352c-7.787,3.822-21.655,9.429-28.105,11.538c-1.547-4.715-0.062-12.546-1.856-14.754
					c-0.783-0.964-1.331-3.139-1.728-5.952c0.973-4.729,1.894-9.651,2.656-14.084c0.785-4.556,1.404-8.593,1.72-11.364
					c0.094-0.857,0.165-1.591,0.209-2.188c0.086-1.26,0.072-2.376-0.014-3.347c-0.301-3.462-1.504-5.218-2.333-6.03
					c-0.474-0.469-0.827-0.626-0.827-0.626s0.468-0.36,1.316-0.44c1.382-0.129,3.801,0.446,6.946,4.383
					c2.382,2.98,6.412,6.982,10.17,10.48c3.706,3.454,7.147,6.405,8.457,7.383c0.2,0.158,0.359,0.26,0.445,0.31
					c8.535-5.247,17.446-11.86,24.6-16.252c2.475-1.518,4.736-2.77,6.707-3.613c2.202-0.934,10.839-3.498,10.839-3.498l1.057,0.101
					c0.058,0.792,0.066,1.188,0.066,1.188c2.914,2.086,7.175,2.44,9.738,2.093c1.454-0.201,2.36-0.626,2.16-1.093
					c-0.067-0.16-0.225-0.612-0.334-1.044l0.994,0.093l0.165,0.015c6.038,1.174,11.934,4.793,18.137,8.579
					c12.084,7.369,20.101,17.575,22.467,17.734c2.477-1.497,4.751-2.829,6.838-4.003c1.288-0.726,2.513-1.388,3.67-2
					c16.72-8.874,19.75-6.585,19.75-6.585C268.523,207.593,266.724,211.436,265.391,215.531z"/><linearGradient id="a" x1="218.269" x2="218.269" y1="378.322" y2="378.356" gradientUnits="userSpaceOnUse"><stop offset="0" stop-color="#250027"/><stop offset="1" stop-color="#450074"/></linearGradient><path fill="url(#a)" d="M218.295,378.35c-0.016,0-0.037,0-0.051,0.006c0.014-0.014,0.028-0.03,0.044-0.034
					C218.287,378.327,218.295,378.342,218.295,378.35z"/><path fill="#0b4870" d="M109.345,203.43c0,0,4.385,54.269,8.902,63.62c-0.292,0,1.87,2.397,1.87,2.397l8.935,45.914
					c0,0,3.36,2.051,5.037-1.791c-0.242,0.24-8.214-44.611-9.176-46.769c-0.963-2.159-3.015-2.998-3.917-8.094
					c-0.898-5.094-7.475-53.855-7.656-55.743C113.156,201.075,109.345,203.43,109.345,203.43z"/><path fill="#ffbe55" d="M218.35,149.197c-0.534,0.596-1.061,1.178-1.605,1.734c-0.139,0.133-0.279,0.275-0.415,0.416
					c-0.167,0.165-0.341,0.333-0.515,0.501l-0.027,0.032c-0.161,0.151-0.323,0.302-0.477,0.454
					c-1.039,0.973-2.093,1.868-3.148,2.691c-0.167,0.122-0.332,0.244-0.49,0.367c-0.279,0.209-0.558,0.413-0.836,0.615
					c-0.234,0.167-0.471,0.336-0.708,0.496c-0.247,0.161-0.493,0.331-0.747,0.501c-0.262,0.172-0.524,0.335-0.786,0.499
					c-0.12,0.073-0.256,0.163-0.376,0.237c-0.136,0.076-0.256,0.155-0.392,0.231c-0.256,0.155-0.513,0.305-0.763,0.453
					c-0.257,0.14-0.515,0.282-0.774,0.423c-0.039,0.027-0.075,0.039-0.106,0.065c-1.901,1.026-3.811,1.884-5.709,2.634
					c-0.256,0.097-0.519,0.204-0.789,0.304c-6.776,2.558-13.424,3.751-19.212,6.033c-0.519,0.203-1.012,0.426-1.49,0.667
					c-0.193,0.09-0.376,0.186-0.559,0.289c-0.365,0.155-0.708,0.314-1.028,0.48c-3.163,1.657-9.847,6.997-12.455,9.264
					c0.445-0.964,2.178-2.51,4.005-4.042c0.014-0.009,0.02-0.016,0.034-0.026c1.312-1.095,2.669-2.174,3.637-3.008
					c0.215-0.187,0.409-0.365,0.579-0.523c0.473-0.438,0.914-0.856,1.335-1.259c0.012-0.009,0.025-0.024,0.039-0.033
					c3.001-2.863,4.647-4.647,4.814-5.336c0.307-1.242-2.655-6.104-2.794-6.327c-0.023,0.032-0.195,0.338-0.477,0.795
					c-0.961,1.579-3.117,5.061-4.285,6.311c-1.387,1.468-1.201,0.952-1.89,1.65c-0.076,0.073-0.173,0.115-0.281,0.122
					c-4.745-5.02,2.758-21.934,7.459-26.262c0.19-0.169,0.368-0.315,0.549-0.432c9.571-5.809,16.158,3.213,20.959,9.14
					c1.268,1.565,2.4,2.909,3.441,3.72C207.055,156.957,218.35,149.197,218.35,149.197z"/><path fill="#0b4870" d="M112.752,198.821c0.256,0.846,0.448,2.3,0.591,4.137c-0.814,0.448-1.741,0.735-2.731,0.687
					c-0.591,0.511-0.688,1.022-1.39,0.878c-0.161-1.022-1.039-2.188-1.198-3.194v-0.048c-0.064-0.271-0.097-0.544-0.143-0.799
					c-0.128-0.719-0.24-1.406-0.368-2.109c0-0.064-0.016-0.128-0.031-0.191c-0.144-0.879-0.304-1.741-0.448-2.588
					c-0.016-0.175-0.064-0.352-0.079-0.512c-0.079-0.367-0.128-0.735-0.192-1.086c-0.064-0.367-0.128-0.719-0.192-1.086
					c-0.287-1.581-0.558-3.035-0.783-4.344c-0.079-0.431-0.159-0.847-0.223-1.23c-0.064-0.288-0.112-0.559-0.161-0.815
					c-0.111-0.623-0.207-1.182-0.303-1.677c-2.411-0.495-6.022-1.742-7.858-4.76c0,0,0.016,0,0.031,0.016c0,0,0,0,0.017,0
					c0.638,0.192,8.337,2.061,8.785,2.172c0.016,0,0.016,0,0.016,0v-0.016l-0.767-8.178l3.227,7.555c0,0,0,0,0.016-0.015
					c0.335-0.335,5.703-5.782,6.166-6.948c0,0,0,0.032,0.016,0.111v0.048c0.064,0.926,0.128,5.782-4.761,9.056
					c0.048,0.303,0.097,0.623,0.145,0.959c0.063,0.495,0.144,1.038,0.239,1.613c0.064,0.495,0.144,1.006,0.223,1.533
					c0.161,0.943,0.32,1.917,0.48,2.891c0.175,0.974,0.335,1.949,0.51,2.876c0.033,0.143,0.064,0.287,0.097,0.431
					C112.033,195.994,112.401,197.639,112.752,198.821z"/><path fill="#ffc393" d="M105.359,198.236c0.298,1.412,2.028,0.958,3.708,0.292c1.357-0.538,2.767-1.054,2.695-2.117
					C111.601,194.037,104.847,195.815,105.359,198.236z"/><path fill="#ffc393" d="M106.143,199.842c0.769,2.642,6.085-0.438,5.681-1.743
					C111.425,196.793,105.446,197.456,106.143,199.842z"/><path fill="#ffc393" d="M107.009 202.03c.663 2.277 5.241-.377 4.893-1.502C111.559 199.403 106.41 199.975 107.009 202.03zM104.757 195.976c.771 2.642 6.085-.438 5.681-1.744C110.038 192.926 104.059 193.591 104.757 195.976z"/><g><path fill="#ffbe55" d="M349.243,259.319c1.086,0.025-20.137,3.865-14.307,9.278c5.831,5.414,37.089,0.975,39.682,9.723
						c2.597,8.752-18.999,12.266-19.97,15.001c-0.975,2.733,49.572-2.619,40.491,17.521c-6.029,13.38-10.274,12.85-21.424,13.628
						c-11.148,0.778-60.677-4.121-59.806-12.868c0.871-8.752-8.247-26.826,19.312-25.762c10.343,0.401,22.354-4.764,13.971-5.91
						c-7.663-1.051-25.263-1.504-23.151-8.527C326.158,264.378,334.585,259,349.243,259.319z"/><path fill="#2a94f4" d="M392.524,288.775c0,0.8-0.649,1.447-1.448,1.447c-0.799,0-1.447-0.647-1.447-1.447
						c0-0.797,0.649-1.446,1.447-1.446C391.875,287.329,392.524,287.978,392.524,288.775z"/><path fill="#ffbe55" d="M370.969,256.308c0,1.9-1.539,3.439-3.439,3.439c-1.898,0-3.438-1.539-3.438-3.439
						c0-1.898,1.539-3.436,3.438-3.436C369.43,252.872,370.969,254.41,370.969,256.308z"/><path fill="#0e538c" d="M317.669,249.663c0,1.253-1.015,2.268-2.268,2.268c-1.253,0-2.268-1.016-2.268-2.268
						c0-1.252,1.015-2.266,2.268-2.266C316.654,247.397,317.669,248.411,317.669,249.663z"/><polygon fill="#0e538c" points="337.847 240.008 341.79 238.05 341.15 233.695 344.871 241.197 342.826 245.098 342.186 240.744"/><polygon fill="#0e538c" points="344.229 236.842 348.176 234.886 346.131 238.787 349.213 241.936 344.871 241.197 341.15 233.695"/><polygon fill="#0e538c" points="382.769 267.345 385.025 266.228 384.658 263.737 386.786 268.027 385.617 270.257 385.251 267.768"/><polygon fill="#0e538c" points="386.419 265.536 388.675 264.417 387.507 266.647 389.269 268.448 386.786 268.027 384.658 263.737"/><polygon fill="#ffbe55" points="298.997 280.239 301.25 279.121 300.882 276.63 303.013 280.921 301.843 283.15 301.477 280.659"/><polygon fill="#ffbe55" points="302.647 278.428 304.901 277.312 303.732 279.542 305.496 281.341 303.013 280.921 300.882 276.63"/><path fill="#0e538c" d="M404.413,328.523c0,30.597-24.793,55.398-55.39,55.398c-30.596,0-55.398-24.801-55.398-55.398
					c0-7.98,1.699-15.554,4.748-22.41c-0.766-0.621-1.126-1.312-1.126-2.084c0-2.878,5.082-4.667,17-5.98
					c9.317-1.029,21.664-1.596,34.776-1.596c13.105,0,25.458,0.566,34.774,1.596c11.915,1.313,16.999,3.103,16.999,5.98
					c0,0.772-0.362,1.463-1.126,2.084C402.716,312.969,404.413,320.543,404.413,328.523z"/><path fill="#0e538c" d="M312.462 370.127l-3.636 17.367c0 0 1.811 2.291 6.704 1.003l6.445-11.627C318.566 374.956 315.381 372.692 312.462 370.127zM385.622 370.091c-2.915 2.571-6.105 4.837-9.515 6.756l6.458 11.65c4.895 1.288 6.704-1.003 6.704-1.003l-3.644-17.401L385.622 370.091z"/></g></svg>